<svg width="536" height="290" viewBox="0 0 536 290" fill="none" xmlns="http://www.w3.org/2000/svg">
<path d="M55.1328 95.2422C54.7943 96.3255 54.2188 97.138 53.4062 97.6797C52.6615 98.2214 51.9167 98.4922 51.1719 98.4922C50.0208 98.4922 49.0391 98.1536 48.2266 97.4766C47.4141 96.7318 46.9401 95.6823 46.8047 94.3281C47.0078 92.4323 47.1094 90.5365 47.1094 88.6406C47.1094 84.375 46.7031 80.1094 45.8906 75.8438C45.1458 71.5781 44.638 67.1771 44.3672 62.6406V59.6953C44.3672 58.6797 44.401 57.5286 44.4688 56.2422C44.5365 54.9557 44.638 53.7031 44.7734 52.4844C44.9089 51.2656 45.0443 50.1484 45.1797 49.1328C45.3828 48.0495 45.5859 47.2031 45.7891 46.5938L46.0938 45.5781C46.0938 45.1719 46.2292 44.7995 46.5 44.4609C46.8385 44.0547 47.2109 43.7161 47.6172 43.4453C48.0911 43.1745 48.5651 42.9714 49.0391 42.8359C49.513 42.6328 49.9193 42.5312 50.2578 42.5312C51.2057 42.5312 52.1198 42.8698 53 43.5469C55.6406 45.7135 58.3151 48.0833 61.0234 50.6562C63.7995 53.1615 66.4062 55.7344 68.8438 58.375C71.349 61.0156 73.651 63.6562 75.75 66.2969C77.849 68.9375 79.5417 71.375 80.8281 73.6094L81.4375 67.0078C81.776 64.0964 82.013 61.0833 82.1484 57.9688C82.3516 54.8542 82.487 51.638 82.5547 48.3203C82.4193 47.7786 82.3516 47.3047 82.3516 46.8984C82.3516 45.5443 82.724 44.4948 83.4688 43.75C84.2135 43.0052 85.1615 42.6328 86.3125 42.6328C87.2604 42.6328 88.0391 42.8021 88.6484 43.1406C89.3255 43.4792 89.8333 43.9193 90.1719 44.4609C90.5781 45.0026 90.849 45.612 90.9844 46.2891C91.1198 46.8984 91.1875 47.5078 91.1875 48.1172C91.1875 49.2005 91.0859 50.2839 90.8828 51.3672C90.7474 52.3828 90.6797 53.3307 90.6797 54.2109C90.2734 59.8984 89.8333 65.4844 89.3594 70.9688C88.8854 76.3854 88.6484 81.9375 88.6484 87.625C88.5807 88.9115 88.1745 89.9948 87.4297 90.875C86.7526 91.7552 85.737 92.1953 84.3828 92.1953C83.638 92.1953 82.9271 91.9583 82.25 91.4844C81.6406 91.0104 81.0651 90.4688 80.5234 89.8594C79.9818 89.25 79.5078 88.6406 79.1016 88.0312C78.763 87.4219 78.526 86.9818 78.3906 86.7109L76.6641 82.9531C73.4818 77.1979 69.8255 71.9167 65.6953 67.1094C61.6328 62.2344 57.3672 57.901 52.8984 54.1094C52.763 55.0573 52.6276 56.0391 52.4922 57.0547C52.4245 58.0026 52.3906 58.9505 52.3906 59.8984C52.3906 62.4714 52.526 65.0443 52.7969 67.6172C53.1354 70.1901 53.474 72.763 53.8125 75.3359C54.151 77.8411 54.4557 80.3802 54.7266 82.9531C55.0651 85.526 55.2344 88.1328 55.2344 90.7734C55.2344 91.5182 55.2344 92.263 55.2344 93.0078C55.2344 93.7526 55.2005 94.4974 55.1328 95.2422ZM104.086 98.4922C103.477 97.6797 102.969 96.6979 102.562 95.5469C102.224 94.3958 101.953 93.1771 101.75 91.8906C101.547 90.6042 101.378 89.2839 101.242 87.9297C101.174 86.5755 101.107 85.2891 101.039 84.0703L100.43 71.8828C100.227 69.9193 100.057 68.4297 99.9219 67.4141C99.8542 66.3984 99.7526 65.3828 99.6172 64.3672C99.5495 63.2839 99.4818 61.9974 99.4141 60.5078C99.4141 58.9505 99.4141 56.6823 99.4141 53.7031C99.4141 52.6875 99.3802 51.7057 99.3125 50.7578C99.3125 49.8099 99.3125 48.862 99.3125 47.9141C99.3125 45.4766 99.9219 43.8177 101.141 42.9375C102.427 41.9896 104.052 41.5156 106.016 41.5156C107.167 41.5156 108.385 41.5833 109.672 41.7188C110.958 41.7865 112.245 41.8203 113.531 41.8203C115.901 41.8203 118.237 41.5156 120.539 40.9062C122.841 40.2292 125.076 39.6875 127.242 39.2812C128.596 39.2812 129.747 39.6536 130.695 40.3984C131.643 41.0755 132.117 41.9219 132.117 42.9375C132.117 43.8854 131.812 44.8333 131.203 45.7812C130.594 46.6615 129.612 47.237 128.258 47.5078C125.617 48.0495 122.909 48.6589 120.133 49.3359C117.357 50.013 114.547 50.3516 111.703 50.3516C110.958 50.3516 110.214 50.3516 109.469 50.3516C108.724 50.3516 108.081 50.2839 107.539 50.1484C107.607 52.7214 107.674 55.1927 107.742 57.5625C107.81 59.9323 107.911 62.2344 108.047 64.4688H108.148C113.294 63.9271 118.135 63.6224 122.672 63.5547C127.208 63.4193 132.016 63.3516 137.094 63.3516C139.599 64.0286 140.852 65.4167 140.852 67.5156C140.852 68.4635 140.479 69.3438 139.734 70.1562C139.057 70.901 138.109 71.375 136.891 71.5781C136.349 71.5781 135.266 71.5781 133.641 71.5781C132.083 71.5781 130.255 71.612 128.156 71.6797C126.057 71.6797 123.857 71.7135 121.555 71.7812C119.253 71.7812 117.12 71.849 115.156 71.9844C113.26 72.0521 111.669 72.1536 110.383 72.2891C109.164 72.4245 108.555 72.5938 108.555 72.7969C108.555 75.8438 108.724 78.8906 109.062 81.9375C109.469 84.9167 109.807 87.862 110.078 90.7734C111.906 90.0964 113.904 89.5208 116.07 89.0469C118.237 88.5052 120.471 88.099 122.773 87.8281C125.143 87.5573 127.547 87.3542 129.984 87.2188C132.422 87.0833 134.792 87.0156 137.094 87.0156C138.448 87.5573 139.396 88.2005 139.938 88.9453C140.547 89.6224 140.852 90.401 140.852 91.2812C140.852 92.2292 140.479 93.1094 139.734 93.9219C139.057 94.6667 138.109 95.1406 136.891 95.3438C133.776 95.3438 130.526 95.5807 127.141 96.0547C123.755 96.4609 120.607 96.9688 117.695 97.5781C114.852 98.1198 112.414 98.5938 110.383 99C108.352 99.474 107.133 99.7109 106.727 99.7109C106.388 99.7109 105.982 99.5755 105.508 99.3047C105.102 99.1016 104.628 98.8307 104.086 98.4922ZM148.875 49.3359C148.469 48.5234 148.266 47.7786 148.266 47.1016C148.266 45.9505 148.638 45.0026 149.383 44.2578C150.128 43.4453 151.076 43.0391 152.227 43.0391C152.836 43.0391 153.479 43.1745 154.156 43.4453C154.833 43.7161 155.443 44.1901 155.984 44.8672C158.219 48.0495 160.352 51.0964 162.383 54.0078C164.482 56.9193 166.547 59.6615 168.578 62.2344L173.047 55.4297C173.859 54.2109 174.875 52.6875 176.094 50.8594C177.38 49.0312 178.701 47.3047 180.055 45.6797C181.409 43.987 182.763 42.5312 184.117 41.3125C185.471 40.0938 186.656 39.4844 187.672 39.4844C188.688 39.4844 189.602 39.8906 190.414 40.7031C191.227 41.4479 191.633 42.2943 191.633 43.2422C191.633 44.3932 191.227 45.5104 190.414 46.5938C187.164 50.25 184.151 53.974 181.375 57.7656C178.667 61.5573 176.229 65.349 174.062 69.1406L186.352 83.6641C186.893 84.2734 187.638 85.0859 188.586 86.1016C189.602 87.0495 190.583 88.099 191.531 89.25C192.479 90.401 193.292 91.6198 193.969 92.9062C194.714 94.1927 195.086 95.3776 195.086 96.4609C195.086 97.8151 194.646 98.8307 193.766 99.5078C192.953 100.185 192.107 100.523 191.227 100.523C190.617 100.456 190.042 100.286 189.5 100.016C189.026 99.8125 188.518 99.3047 187.977 98.4922L186.758 96.7656C186.148 95.9531 185.573 95.2422 185.031 94.6328C184.557 94.0234 184.185 93.4479 183.914 92.9062L180.562 88.7422C179.073 87.1849 177.786 85.8646 176.703 84.7812C175.62 83.6979 174.57 82.5469 173.555 81.3281L169.695 76.7578C169.154 77.7057 168.443 79.026 167.562 80.7188C166.682 82.3438 165.701 84.138 164.617 86.1016C163.602 87.9974 162.518 89.8932 161.367 91.7891C160.216 93.6172 159.099 95.1406 158.016 96.3594C157.068 96.8333 156.188 97.0703 155.375 97.0703C154.224 97.0703 153.242 96.6979 152.43 95.9531C151.685 95.1406 151.312 94.1927 151.312 93.1094C151.312 92.026 152.023 90.5026 153.445 88.5391C154.935 86.5755 156.594 83.9349 158.422 80.6172C160.182 77.3672 161.469 74.8281 162.281 73C163.161 71.1719 163.771 70.0885 164.109 69.75C161.469 66.6354 158.862 63.3516 156.289 59.8984C153.784 56.4453 151.312 52.9245 148.875 49.3359ZM231.039 50.1484C230.836 57.3932 230.734 64.875 230.734 72.5938V96.3594C230.734 97.5781 230.294 98.5599 229.414 99.3047C228.602 100.049 227.721 100.422 226.773 100.422C225.826 100.422 224.878 100.083 223.93 99.4062C223.049 98.7969 222.542 97.7135 222.406 96.1562V72.7969C222.406 65.2812 222.508 58.0026 222.711 50.9609C219.461 51.2995 216.549 51.6042 213.977 51.875C211.404 52.0781 209.135 52.3151 207.172 52.5859C205.818 52.4505 204.768 51.9766 204.023 51.1641C203.346 50.3516 203.008 49.3698 203.008 48.2188C203.008 46.9323 203.617 45.9505 204.836 45.2734C206.055 44.5964 207.68 44.0885 209.711 43.75C211.742 43.3438 214.078 43.0729 216.719 42.9375C219.427 42.8021 222.271 42.599 225.25 42.3281C229.38 41.9896 233.036 41.7188 236.219 41.5156C239.401 41.3125 242.143 41.2109 244.445 41.2109C246.883 42.0911 248.102 43.4453 248.102 45.2734C247.898 46.6953 247.289 47.7109 246.273 48.3203C245.326 48.9297 244.073 49.3359 242.516 49.5391C241.026 49.7422 239.299 49.8438 237.336 49.8438C235.372 49.8438 233.273 49.9453 231.039 50.1484ZM277.25 49.1328C277.182 48.7943 277.148 48.5234 277.148 48.3203C277.148 48.0495 277.148 47.8464 277.148 47.7109C277.081 47.7786 276.945 47.8125 276.742 47.8125C271.393 48.625 265.875 49.1328 260.188 49.3359C258.969 49.2005 257.987 48.7943 257.242 48.1172C256.497 47.3724 256.125 46.4583 256.125 45.375C256.125 44.5625 256.362 43.75 256.836 42.9375C257.31 42.0573 258.122 41.4141 259.273 41.0078C265.029 40.8047 270.716 40.2969 276.336 39.4844C282.023 38.6719 287.745 38.2656 293.5 38.2656C295.938 39.4167 297.156 40.8385 297.156 42.5312C296.953 43.8854 296.378 44.8672 295.43 45.4766C294.549 46.0182 293.5 46.3906 292.281 46.5938C291.13 46.7969 289.911 46.8646 288.625 46.7969C287.339 46.7292 286.221 46.7292 285.273 46.7969C285.883 48.5573 286.391 50.25 286.797 51.875C287.203 53.5 287.542 55.1589 287.812 56.8516C288.151 58.4766 288.456 60.2031 288.727 62.0312C289.065 63.7917 289.404 65.6875 289.742 67.7188C290.081 69.8177 290.385 71.8828 290.656 73.9141C290.927 75.9453 291.062 78.0104 291.062 80.1094C291.062 83.6302 290.724 86.8464 290.047 89.7578C289.37 92.6693 288.422 95.1745 287.203 97.2734C285.984 99.3047 284.495 100.896 282.734 102.047C281.042 103.198 279.18 103.773 277.148 103.773C275.117 103.773 273.052 103.266 270.953 102.25C268.922 101.234 266.992 99.8464 265.164 98.0859C263.404 96.3255 261.846 94.3281 260.492 92.0938C259.138 89.7917 258.224 87.3542 257.75 84.7812C257.615 84.375 257.547 84.0365 257.547 83.7656C257.547 82.6823 257.953 81.7682 258.766 81.0234C259.646 80.2109 260.594 79.8047 261.609 79.8047C262.49 79.8047 263.268 80.2109 263.945 81.0234C264.69 81.7682 265.367 82.7161 265.977 83.8672C266.586 85.0182 267.229 86.2708 267.906 87.625C268.651 88.9792 269.464 90.2318 270.344 91.3828C271.292 92.5339 272.409 93.5156 273.695 94.3281C274.982 95.0729 276.505 95.4453 278.266 95.4453L278.977 95.0391C280.331 93.0755 281.279 90.875 281.82 88.4375C282.43 85.9323 282.734 83.2917 282.734 80.5156C282.734 79.026 282.667 77.5365 282.531 76.0469C282.396 74.5573 282.193 73.0339 281.922 71.4766C281.177 67.0078 280.466 63.013 279.789 59.4922C279.18 55.9714 278.333 52.5182 277.25 49.1328ZM340.93 41.7188C341.539 42.8698 341.844 43.9531 341.844 44.9688C341.844 45.9167 341.438 46.763 340.625 47.5078C339.88 48.1849 338.898 48.5234 337.68 48.5234C336.867 48.5234 336.122 48.3542 335.445 48.0156C332.805 45.7812 329.927 44.6641 326.812 44.6641C323.292 44.6641 320.312 46.0859 317.875 48.9297C317.807 49.2005 317.706 49.5052 317.57 49.8438C317.503 50.1823 317.401 50.487 317.266 50.7578C317.266 53.6016 318.01 55.9714 319.5 57.8672C320.99 59.6953 322.852 61.3542 325.086 62.8438C327.32 64.2656 329.724 65.6198 332.297 66.9062C334.87 68.1927 337.273 69.6823 339.508 71.375C341.742 73.0677 343.604 75.1328 345.094 77.5703C346.583 79.9401 347.328 82.9193 347.328 86.5078C347.328 89.487 346.617 91.9922 345.195 94.0234C343.841 96.0547 342.115 97.7135 340.016 99C337.917 100.219 335.682 101.099 333.312 101.641C330.943 102.25 328.742 102.555 326.711 102.555C323.19 102.555 319.737 101.81 316.352 100.32C312.966 98.8984 310.021 96.7318 307.516 93.8203C306.974 93.0755 306.432 92.1276 305.891 90.9766C305.349 89.8255 305.078 88.7083 305.078 87.625C305.078 86.474 305.417 85.4922 306.094 84.6797C306.839 83.7995 307.888 83.3594 309.242 83.3594C310.529 83.3594 311.544 83.9349 312.289 85.0859C313.102 86.1693 313.812 87.5234 314.422 89.1484C316.182 90.9089 318.078 92.2292 320.109 93.1094C322.141 93.9219 324.24 94.3281 326.406 94.3281C327.219 94.3281 328.234 94.2604 329.453 94.125C330.672 93.9219 331.857 93.6172 333.008 93.2109C334.227 92.8047 335.31 92.2969 336.258 91.6875C337.273 91.0104 337.984 90.1979 338.391 89.25C338.526 88.7083 338.628 88.2682 338.695 87.9297C338.831 87.5234 338.966 87.151 339.102 86.8125C338.695 84.5104 337.849 82.513 336.562 80.8203C335.344 79.1276 333.888 77.638 332.195 76.3516C330.503 75.0651 328.708 73.9479 326.812 73C324.984 72.0521 323.292 71.138 321.734 70.2578C318.958 68.7005 316.453 66.8385 314.219 64.6719C311.984 62.4375 310.292 59.2214 309.141 55.0234C308.802 53.8047 308.633 52.6536 308.633 51.5703C308.633 49.2682 309.208 47.1693 310.359 45.2734C311.51 43.3776 313 41.7865 314.828 40.5C316.656 39.1458 318.721 38.0964 321.023 37.3516C323.326 36.6068 325.661 36.2344 328.031 36.2344C330.807 36.2344 333.211 36.7422 335.242 37.7578C337.273 38.7057 339.169 40.026 340.93 41.7188Z" fill="white"/>
<path d="M65.7891 130.148C65.5859 137.393 65.4844 144.875 65.4844 152.594V176.359C65.4844 177.578 65.0443 178.56 64.1641 179.305C63.3516 180.049 62.4714 180.422 61.5234 180.422C60.5755 180.422 59.6276 180.083 58.6797 179.406C57.7995 178.797 57.2917 177.714 57.1562 176.156V152.797C57.1562 145.281 57.2578 138.003 57.4609 130.961C54.2109 131.299 51.2995 131.604 48.7266 131.875C46.1536 132.078 43.8854 132.315 41.9219 132.586C40.5677 132.451 39.5182 131.977 38.7734 131.164C38.0964 130.352 37.7578 129.37 37.7578 128.219C37.7578 126.932 38.3672 125.951 39.5859 125.273C40.8047 124.596 42.4297 124.089 44.4609 123.75C46.4922 123.344 48.8281 123.073 51.4688 122.938C54.1771 122.802 57.0208 122.599 60 122.328C64.1302 121.99 67.7865 121.719 70.9688 121.516C74.151 121.312 76.8932 121.211 79.1953 121.211C81.6328 122.091 82.8516 123.445 82.8516 125.273C82.6484 126.695 82.0391 127.711 81.0234 128.32C80.0755 128.93 78.8229 129.336 77.2656 129.539C75.776 129.742 74.0495 129.844 72.0859 129.844C70.1224 129.844 68.0234 129.945 65.7891 130.148ZM95.6484 178.492C95.0391 177.68 94.5312 176.698 94.125 175.547C93.7865 174.396 93.5156 173.177 93.3125 171.891C93.1094 170.604 92.9401 169.284 92.8047 167.93C92.737 166.576 92.6693 165.289 92.6016 164.07L91.9922 151.883C91.7891 149.919 91.6198 148.43 91.4844 147.414C91.4167 146.398 91.3151 145.383 91.1797 144.367C91.112 143.284 91.0443 141.997 90.9766 140.508C90.9766 138.951 90.9766 136.682 90.9766 133.703C90.9766 132.688 90.9427 131.706 90.875 130.758C90.875 129.81 90.875 128.862 90.875 127.914C90.875 125.477 91.4844 123.818 92.7031 122.938C93.9896 121.99 95.6146 121.516 97.5781 121.516C98.7292 121.516 99.9479 121.583 101.234 121.719C102.521 121.786 103.807 121.82 105.094 121.82C107.464 121.82 109.799 121.516 112.102 120.906C114.404 120.229 116.638 119.688 118.805 119.281C120.159 119.281 121.31 119.654 122.258 120.398C123.206 121.076 123.68 121.922 123.68 122.938C123.68 123.885 123.375 124.833 122.766 125.781C122.156 126.661 121.174 127.237 119.82 127.508C117.18 128.049 114.471 128.659 111.695 129.336C108.919 130.013 106.109 130.352 103.266 130.352C102.521 130.352 101.776 130.352 101.031 130.352C100.286 130.352 99.6432 130.284 99.1016 130.148C99.1693 132.721 99.237 135.193 99.3047 137.562C99.3724 139.932 99.474 142.234 99.6094 144.469H99.7109C104.857 143.927 109.698 143.622 114.234 143.555C118.771 143.419 123.578 143.352 128.656 143.352C131.161 144.029 132.414 145.417 132.414 147.516C132.414 148.464 132.042 149.344 131.297 150.156C130.62 150.901 129.672 151.375 128.453 151.578C127.911 151.578 126.828 151.578 125.203 151.578C123.646 151.578 121.818 151.612 119.719 151.68C117.62 151.68 115.419 151.714 113.117 151.781C110.815 151.781 108.682 151.849 106.719 151.984C104.823 152.052 103.232 152.154 101.945 152.289C100.727 152.424 100.117 152.594 100.117 152.797C100.117 155.844 100.286 158.891 100.625 161.938C101.031 164.917 101.37 167.862 101.641 170.773C103.469 170.096 105.466 169.521 107.633 169.047C109.799 168.505 112.034 168.099 114.336 167.828C116.706 167.557 119.109 167.354 121.547 167.219C123.984 167.083 126.354 167.016 128.656 167.016C130.01 167.557 130.958 168.201 131.5 168.945C132.109 169.622 132.414 170.401 132.414 171.281C132.414 172.229 132.042 173.109 131.297 173.922C130.62 174.667 129.672 175.141 128.453 175.344C125.339 175.344 122.089 175.581 118.703 176.055C115.318 176.461 112.169 176.969 109.258 177.578C106.414 178.12 103.977 178.594 101.945 179C99.9141 179.474 98.6953 179.711 98.2891 179.711C97.9505 179.711 97.5443 179.576 97.0703 179.305C96.6641 179.102 96.1901 178.831 95.6484 178.492ZM177.102 127.203L179.641 123.445C180.656 122.565 181.367 122.057 181.773 121.922C182.247 121.719 182.823 121.617 183.5 121.617H184.211L185.633 122.023L186.547 122.836C187.224 123.445 187.799 124.427 188.273 125.781C188.747 127.068 189.154 128.456 189.492 129.945C189.831 131.435 190.102 132.891 190.305 134.312C190.508 135.667 190.711 136.75 190.914 137.562C191.388 139.797 191.76 141.693 192.031 143.25C192.302 144.807 192.539 146.263 192.742 147.617C192.945 148.971 193.148 150.427 193.352 151.984C193.622 153.542 193.995 155.438 194.469 157.672C195.01 160.448 195.484 163.122 195.891 165.695C196.365 168.201 196.602 170.807 196.602 173.516C196.602 175.953 196.161 177.578 195.281 178.391C194.401 179.203 193.284 179.609 191.93 179.609C190.914 179.474 190.068 179.068 189.391 178.391C188.714 177.714 188.341 176.766 188.273 175.547C188.341 175.005 188.375 174.497 188.375 174.023C188.443 173.549 188.477 173.042 188.477 172.5C188.477 169.859 188.172 167.32 187.562 164.883C187.021 162.378 186.479 159.771 185.938 157.062C184.99 152.188 184.245 147.99 183.703 144.469C183.229 140.948 182.586 137.63 181.773 134.516L181.266 135.227C179.979 137.122 178.693 139.12 177.406 141.219C176.12 143.25 174.867 145.281 173.648 147.312C172.497 149.344 171.38 151.273 170.297 153.102C169.281 154.93 168.367 156.555 167.555 157.977C166.336 159.398 165.151 160.109 164 160.109C162.917 160.109 161.867 159.568 160.852 158.484C159.904 157.333 158.99 155.911 158.109 154.219C157.229 152.526 156.417 150.732 155.672 148.836C154.995 146.872 154.385 145.112 153.844 143.555L150.695 136.141C150.154 138.714 149.714 141.49 149.375 144.469C149.104 147.38 148.901 150.427 148.766 153.609C148.63 156.724 148.529 159.906 148.461 163.156C148.461 166.406 148.461 169.622 148.461 172.805C148.461 174.023 148.021 175.005 147.141 175.75C146.26 176.495 145.346 176.867 144.398 176.867C143.18 176.867 142.266 176.562 141.656 175.953C141.115 175.344 140.742 174.497 140.539 173.414C140.336 172.331 140.234 171.112 140.234 169.758C140.234 168.336 140.234 166.846 140.234 165.289C140.234 160.617 140.336 155.979 140.539 151.375C140.742 146.771 141.318 142.133 142.266 137.461C142.536 136.581 142.74 135.362 142.875 133.805C143.078 132.18 143.383 130.622 143.789 129.133C144.263 127.643 144.906 126.357 145.719 125.273C146.599 124.122 147.818 123.547 149.375 123.547C150.594 123.547 151.846 124.19 153.133 125.477C154.419 126.695 155.638 128.286 156.789 130.25C158.008 132.214 159.125 134.38 160.141 136.75C161.224 139.12 162.138 141.456 162.883 143.758C163.492 145.789 164.034 146.805 164.508 146.805C164.508 146.805 164.745 146.466 165.219 145.789C165.693 145.112 166.268 144.266 166.945 143.25C167.622 142.167 168.333 141.016 169.078 139.797C169.891 138.51 170.635 137.258 171.312 136.039L175.883 129.031C176.289 128.557 176.695 127.948 177.102 127.203ZM219.555 179.609C219.555 180.76 219.148 181.708 218.336 182.453C217.523 183.198 216.643 183.57 215.695 183.57C214.747 183.57 213.766 183.266 212.75 182.656C211.802 182.047 211.328 180.997 211.328 179.508C211.328 176.935 211.26 174.43 211.125 171.992C211.057 169.487 210.956 166.982 210.82 164.477C210.211 164.206 209.669 163.664 209.195 162.852C208.721 162.039 208.484 161.26 208.484 160.516C208.484 159.5 209.06 158.417 210.211 157.266C209.669 153.406 208.924 149.513 207.977 145.586C207.096 141.659 206.352 137.732 205.742 133.805C205.607 133.128 205.539 132.484 205.539 131.875C205.539 131.198 205.438 130.487 205.234 129.742L205.031 127.812C204.828 126.932 204.659 126.018 204.523 125.07C204.388 124.122 204.32 123.141 204.32 122.125C204.32 120.161 205.031 118.807 206.453 118.062C207.875 117.318 209.602 116.945 211.633 116.945C213.596 116.945 215.729 117.216 218.031 117.758C220.333 118.232 222.568 118.909 224.734 119.789C226.901 120.669 228.932 121.651 230.828 122.734C232.724 123.818 234.247 124.901 235.398 125.984C237.023 127.542 238.174 129.573 238.852 132.078C239.596 134.583 239.969 137.021 239.969 139.391C239.969 142.438 239.393 145.078 238.242 147.312C237.091 149.479 235.568 151.443 233.672 153.203C231.844 154.964 229.711 156.622 227.273 158.18C224.836 159.669 222.331 161.227 219.758 162.852L218.742 163.461C219.013 165.966 219.216 168.573 219.352 171.281C219.487 173.922 219.555 176.698 219.555 179.609ZM217.727 154.422L222.398 151.883C223.617 151.206 224.768 150.461 225.852 149.648C226.935 148.836 227.917 147.922 228.797 146.906C229.677 145.823 230.354 144.638 230.828 143.352C231.37 142.065 231.641 140.643 231.641 139.086C231.641 136.31 230.93 134.076 229.508 132.383C228.154 130.69 226.495 129.37 224.531 128.422C222.568 127.406 220.536 126.695 218.438 126.289C216.406 125.883 214.68 125.578 213.258 125.375C213.596 126.526 213.766 128.016 213.766 129.844C213.766 131.672 213.969 133.568 214.375 135.531C214.984 138.849 215.56 142.065 216.102 145.18C216.711 148.294 217.253 151.375 217.727 154.422ZM246.875 122.836C247.146 121.549 247.62 120.602 248.297 119.992C249.042 119.383 249.922 119.01 250.938 118.875C252.766 118.875 254.12 120.094 255 122.531C255.88 131.062 256.591 139.526 257.133 147.922C257.742 156.318 258.792 164.409 260.281 172.195C262.651 172.195 265.055 172.229 267.492 172.297C269.997 172.297 272.536 172.297 275.109 172.297C279.443 172.297 283.81 172.195 288.211 171.992C289.565 172.398 290.547 173.008 291.156 173.82C291.766 174.565 292.07 175.378 292.07 176.258C291.935 177.273 291.562 178.154 290.953 178.898C290.344 179.643 289.396 180.117 288.109 180.32C284.656 180.456 281.169 180.693 277.648 181.031C274.195 181.438 270.742 181.641 267.289 181.641C266.138 181.641 264.818 181.607 263.328 181.539C261.906 181.471 260.518 181.302 259.164 181.031C257.81 180.76 256.557 180.354 255.406 179.812C254.255 179.271 253.409 178.526 252.867 177.578C251.987 173.854 251.344 170.232 250.938 166.711C250.531 163.122 250.159 159.5 249.82 155.844C249.211 150.359 248.703 144.875 248.297 139.391C247.891 133.906 247.417 128.388 246.875 122.836ZM313.602 159.703C313.263 159.635 312.958 159.602 312.688 159.602C312.552 159.602 312.214 160.109 311.672 161.125C311.13 162.073 310.487 163.19 309.742 164.477C309.065 165.695 308.388 166.948 307.711 168.234C307.034 169.453 306.526 170.333 306.188 170.875C305.104 172.161 303.885 172.805 302.531 172.805C301.516 172.805 300.635 172.466 299.891 171.789C299.146 171.044 298.773 169.995 298.773 168.641C298.773 168.099 298.807 167.659 298.875 167.32C301.109 163.393 303.242 159.534 305.273 155.742C307.305 151.951 309.404 148.193 311.57 144.469C313.805 140.745 316.141 137.122 318.578 133.602C321.016 130.013 323.758 126.526 326.805 123.141C327.279 122.599 327.786 122.26 328.328 122.125C328.87 121.922 329.378 121.786 329.852 121.719C330.867 121.719 331.714 122.091 332.391 122.836C333.135 123.581 333.576 124.495 333.711 125.578C333.508 126.323 333.271 126.831 333 127.102L333.812 126.695C334.693 126.695 335.607 126.932 336.555 127.406C337.57 127.88 338.281 128.794 338.688 130.148C339.229 133.94 339.872 137.63 340.617 141.219C341.362 144.74 342.073 148.294 342.75 151.883C343.495 155.404 344.138 158.958 344.68 162.547C345.289 166.135 345.661 169.859 345.797 173.719C345.797 175.073 345.391 176.122 344.578 176.867C343.766 177.544 342.885 177.883 341.938 177.883C340.922 177.883 339.94 177.578 338.992 176.969C338.112 176.359 337.604 175.31 337.469 173.82C337.333 169.081 336.927 164.612 336.25 160.414C336.115 160.549 335.742 160.651 335.133 160.719C331.477 160.719 327.82 160.549 324.164 160.211C320.576 159.872 317.055 159.703 313.602 159.703ZM317.156 151.578C319.594 151.714 322.438 151.883 325.688 152.086C328.938 152.289 331.917 152.391 334.625 152.391H334.727L334.625 151.883C334.422 151.206 334.185 150.224 333.914 148.938C333.643 147.651 333.339 146.263 333 144.773C332.729 143.284 332.424 141.76 332.086 140.203C331.815 138.578 331.544 137.122 331.273 135.836C331.003 134.549 330.766 133.5 330.562 132.688C330.427 131.875 330.359 131.469 330.359 131.469C329.75 132.01 328.904 132.992 327.82 134.414C326.872 135.633 325.654 137.427 324.164 139.797C322.674 142.099 320.812 145.247 318.578 149.242L317.156 151.578ZM381.852 130.148C381.648 137.393 381.547 144.875 381.547 152.594V176.359C381.547 177.578 381.107 178.56 380.227 179.305C379.414 180.049 378.534 180.422 377.586 180.422C376.638 180.422 375.69 180.083 374.742 179.406C373.862 178.797 373.354 177.714 373.219 176.156V152.797C373.219 145.281 373.32 138.003 373.523 130.961C370.273 131.299 367.362 131.604 364.789 131.875C362.216 132.078 359.948 132.315 357.984 132.586C356.63 132.451 355.581 131.977 354.836 131.164C354.159 130.352 353.82 129.37 353.82 128.219C353.82 126.932 354.43 125.951 355.648 125.273C356.867 124.596 358.492 124.089 360.523 123.75C362.555 123.344 364.891 123.073 367.531 122.938C370.24 122.802 373.083 122.599 376.062 122.328C380.193 121.99 383.849 121.719 387.031 121.516C390.214 121.312 392.956 121.211 395.258 121.211C397.695 122.091 398.914 123.445 398.914 125.273C398.711 126.695 398.102 127.711 397.086 128.32C396.138 128.93 394.885 129.336 393.328 129.539C391.839 129.742 390.112 129.844 388.148 129.844C386.185 129.844 384.086 129.945 381.852 130.148ZM411.711 178.492C411.102 177.68 410.594 176.698 410.188 175.547C409.849 174.396 409.578 173.177 409.375 171.891C409.172 170.604 409.003 169.284 408.867 167.93C408.799 166.576 408.732 165.289 408.664 164.07L408.055 151.883C407.852 149.919 407.682 148.43 407.547 147.414C407.479 146.398 407.378 145.383 407.242 144.367C407.174 143.284 407.107 141.997 407.039 140.508C407.039 138.951 407.039 136.682 407.039 133.703C407.039 132.688 407.005 131.706 406.938 130.758C406.938 129.81 406.938 128.862 406.938 127.914C406.938 125.477 407.547 123.818 408.766 122.938C410.052 121.99 411.677 121.516 413.641 121.516C414.792 121.516 416.01 121.583 417.297 121.719C418.583 121.786 419.87 121.82 421.156 121.82C423.526 121.82 425.862 121.516 428.164 120.906C430.466 120.229 432.701 119.688 434.867 119.281C436.221 119.281 437.372 119.654 438.32 120.398C439.268 121.076 439.742 121.922 439.742 122.938C439.742 123.885 439.438 124.833 438.828 125.781C438.219 126.661 437.237 127.237 435.883 127.508C433.242 128.049 430.534 128.659 427.758 129.336C424.982 130.013 422.172 130.352 419.328 130.352C418.583 130.352 417.839 130.352 417.094 130.352C416.349 130.352 415.706 130.284 415.164 130.148C415.232 132.721 415.299 135.193 415.367 137.562C415.435 139.932 415.536 142.234 415.672 144.469H415.773C420.919 143.927 425.76 143.622 430.297 143.555C434.833 143.419 439.641 143.352 444.719 143.352C447.224 144.029 448.477 145.417 448.477 147.516C448.477 148.464 448.104 149.344 447.359 150.156C446.682 150.901 445.734 151.375 444.516 151.578C443.974 151.578 442.891 151.578 441.266 151.578C439.708 151.578 437.88 151.612 435.781 151.68C433.682 151.68 431.482 151.714 429.18 151.781C426.878 151.781 424.745 151.849 422.781 151.984C420.885 152.052 419.294 152.154 418.008 152.289C416.789 152.424 416.18 152.594 416.18 152.797C416.18 155.844 416.349 158.891 416.688 161.938C417.094 164.917 417.432 167.862 417.703 170.773C419.531 170.096 421.529 169.521 423.695 169.047C425.862 168.505 428.096 168.099 430.398 167.828C432.768 167.557 435.172 167.354 437.609 167.219C440.047 167.083 442.417 167.016 444.719 167.016C446.073 167.557 447.021 168.201 447.562 168.945C448.172 169.622 448.477 170.401 448.477 171.281C448.477 172.229 448.104 173.109 447.359 173.922C446.682 174.667 445.734 175.141 444.516 175.344C441.401 175.344 438.151 175.581 434.766 176.055C431.38 176.461 428.232 176.969 425.32 177.578C422.477 178.12 420.039 178.594 418.008 179C415.977 179.474 414.758 179.711 414.352 179.711C414.013 179.711 413.607 179.576 413.133 179.305C412.727 179.102 412.253 178.831 411.711 178.492ZM491.336 121.719C491.945 122.87 492.25 123.953 492.25 124.969C492.25 125.917 491.844 126.763 491.031 127.508C490.286 128.185 489.305 128.523 488.086 128.523C487.273 128.523 486.529 128.354 485.852 128.016C483.211 125.781 480.333 124.664 477.219 124.664C473.698 124.664 470.719 126.086 468.281 128.93C468.214 129.201 468.112 129.505 467.977 129.844C467.909 130.182 467.807 130.487 467.672 130.758C467.672 133.602 468.417 135.971 469.906 137.867C471.396 139.695 473.258 141.354 475.492 142.844C477.727 144.266 480.13 145.62 482.703 146.906C485.276 148.193 487.68 149.682 489.914 151.375C492.148 153.068 494.01 155.133 495.5 157.57C496.99 159.94 497.734 162.919 497.734 166.508C497.734 169.487 497.023 171.992 495.602 174.023C494.247 176.055 492.521 177.714 490.422 179C488.323 180.219 486.089 181.099 483.719 181.641C481.349 182.25 479.148 182.555 477.117 182.555C473.596 182.555 470.143 181.81 466.758 180.32C463.372 178.898 460.427 176.732 457.922 173.82C457.38 173.076 456.839 172.128 456.297 170.977C455.755 169.826 455.484 168.708 455.484 167.625C455.484 166.474 455.823 165.492 456.5 164.68C457.245 163.799 458.294 163.359 459.648 163.359C460.935 163.359 461.951 163.935 462.695 165.086C463.508 166.169 464.219 167.523 464.828 169.148C466.589 170.909 468.484 172.229 470.516 173.109C472.547 173.922 474.646 174.328 476.812 174.328C477.625 174.328 478.641 174.26 479.859 174.125C481.078 173.922 482.263 173.617 483.414 173.211C484.633 172.805 485.716 172.297 486.664 171.688C487.68 171.01 488.391 170.198 488.797 169.25C488.932 168.708 489.034 168.268 489.102 167.93C489.237 167.523 489.372 167.151 489.508 166.812C489.102 164.51 488.255 162.513 486.969 160.82C485.75 159.128 484.294 157.638 482.602 156.352C480.909 155.065 479.115 153.948 477.219 153C475.391 152.052 473.698 151.138 472.141 150.258C469.365 148.701 466.859 146.839 464.625 144.672C462.391 142.438 460.698 139.221 459.547 135.023C459.208 133.805 459.039 132.654 459.039 131.57C459.039 129.268 459.615 127.169 460.766 125.273C461.917 123.378 463.406 121.786 465.234 120.5C467.062 119.146 469.128 118.096 471.43 117.352C473.732 116.607 476.068 116.234 478.438 116.234C481.214 116.234 483.617 116.742 485.648 117.758C487.68 118.706 489.576 120.026 491.336 121.719Z" fill="white"/>
<path d="M380.201 90.1315C380.201 70.1826 381.363 49.845 375.736 30.4626C374.612 26.5928 374.712 23.0991 371.271 20.4952C368.406 18.3271 364.754 17.1814 361.349 16.2557C350.988 13.4393 339.92 11.9849 329.237 11.1142C302.195 8.91012 274.494 10.573 247.378 10.573C218.598 10.573 189.886 8.94931 161.099 8.94931C140.744 8.94931 120.541 8.75287 100.213 7.68647C86.3272 6.95806 71.8939 6.67782 57.9978 7.50607C41.8339 8.46948 29.5958 18.8299 24.1718 33.8001C19.9532 45.4434 13.9554 56.5234 11.1827 68.6633C9.08482 77.8486 9.26178 87.8947 7.93539 97.2575C6.06724 110.444 7.57458 124.711 7.57458 138.074C7.57458 151.869 6.39 165.768 10.6415 179.071C13.3881 187.665 18.4731 195.667 23.0443 203.381C27.2688 210.51 31.0689 220.025 40.2279 221.827C47.5354 223.265 53.2552 228.419 60.2979 230.532C65.4226 232.069 70.4649 234.11 75.5872 235.628C80.002 236.936 83.8859 237.543 83.8859 232.155C83.8859 216.09 94.7371 206.718 108.601 200.72C137.323 188.294 167.789 213.899 169.804 243.115C170.498 253.188 171.011 270.628 161.821 277.482C155.238 282.392 145.304 282.957 137.466 282.804C127.399 282.607 116.616 281.787 106.933 278.835C99.0765 276.44 93.0122 273.747 87.945 267.289C84.5791 262.999 85.4153 257.225 85.5095 252.045C85.7043 241.33 93.845 236.405 103.46 235.132C118.74 233.11 134.721 234.785 149.914 236.53C162.772 238.007 175.799 236.601 188.701 237.883C208.767 239.877 229.339 238.695 249.498 238.695C257.553 238.695 265.618 238.577 273.672 238.695C278.1 238.76 282.191 240.319 286.661 240.319C288.41 240.319 300.164 240.313 299.38 239.417C298.18 238.046 298.308 235.622 298.252 233.959C298.032 227.48 298.042 220.582 299.56 214.25C303.65 197.194 319.272 187.917 335.37 184.483C350.154 181.33 370.758 180.831 382.952 191.203C396.691 202.889 400.077 224.83 400.361 241.897C400.584 255.275 398.881 268.973 384.711 274.054C366.016 280.758 344.624 275.77 326.35 270.356C314.408 266.818 307.137 259.964 307.137 247.264C307.137 241.52 314.532 239.969 318.953 239.687C344.571 238.056 370.689 239.507 396.347 239.507C411.884 239.507 427.641 240.29 443.117 238.695C454.301 237.542 465.673 238.635 476.763 236.575C502.796 231.74 518.634 209.514 525.156 185.115C529.157 170.149 528.366 153.385 527.862 138.029C527.449 125.419 525.566 112.3 517.173 102.309C508.052 91.4499 491.942 90.2241 478.882 90.1315C458.168 89.9846 437.448 90.1315 416.733 90.1315C404.285 90.1315 391.837 90.1315 379.389 90.1315" stroke="#BF1E2E" stroke-width="14" stroke-linecap="round"/>
</svg>
